<mxfile host="app.diagrams.net" agent="Mozilla/5.0 (Macintosh; Intel Mac OS X 10_15_7) AppleWebKit/605.1.15 (KHTML, like Gecko) Version/18.3.1 Safari/605.1.15" version="27.0.5" pages="2">
  <diagram name="Page-1" id="S6AHT2Vzw841tBIhsvn-">
    <mxGraphModel dx="1852" dy="1250" grid="1" gridSize="10" guides="1" tooltips="1" connect="1" arrows="1" fold="1" page="1" pageScale="1" pageWidth="850" pageHeight="1100" math="0" shadow="0">
      <root>
        <mxCell id="0" />
        <mxCell id="1" parent="0" />
        <mxCell id="iGal7SMV2jzwZDCOHfrg-9" style="edgeStyle=orthogonalEdgeStyle;rounded=0;orthogonalLoop=1;jettySize=auto;html=1;entryX=0;entryY=0.5;entryDx=0;entryDy=0;" parent="1" source="iGal7SMV2jzwZDCOHfrg-5" target="iGal7SMV2jzwZDCOHfrg-8" edge="1">
          <mxGeometry relative="1" as="geometry" />
        </mxCell>
        <mxCell id="iGal7SMV2jzwZDCOHfrg-5" value="&lt;font style=&quot;font-size: 17px;&quot;&gt;&lt;b&gt;Input&amp;nbsp;&lt;/b&gt;&lt;/font&gt;&lt;div&gt;&lt;font style=&quot;font-size: 17px;&quot;&gt;(Question + CoT)&lt;/font&gt;&lt;/div&gt;" style="rounded=0;whiteSpace=wrap;html=1;fillColor=#dae8fc;strokeColor=#6c8ebf;strokeWidth=2;" parent="1" vertex="1">
          <mxGeometry x="40" y="95" width="170" height="50" as="geometry" />
        </mxCell>
        <mxCell id="iGal7SMV2jzwZDCOHfrg-11" value="" style="edgeStyle=orthogonalEdgeStyle;rounded=0;orthogonalLoop=1;jettySize=auto;html=1;" parent="1" source="iGal7SMV2jzwZDCOHfrg-8" target="iGal7SMV2jzwZDCOHfrg-10" edge="1">
          <mxGeometry relative="1" as="geometry" />
        </mxCell>
        <mxCell id="iGal7SMV2jzwZDCOHfrg-8" value="&lt;font style=&quot;font-size: 20px;&quot; face=&quot;Helvetica&quot;&gt;&lt;b&gt;LLM-SR System&lt;/b&gt;&lt;/font&gt;" style="ellipse;whiteSpace=wrap;html=1;fillColor=#6a00ff;fontColor=#ffffff;strokeColor=#3700CC;" parent="1" vertex="1">
          <mxGeometry x="300" y="38.75" width="170" height="162.5" as="geometry" />
        </mxCell>
        <mxCell id="iGal7SMV2jzwZDCOHfrg-10" value="&lt;font style=&quot;font-size: 17px;&quot;&gt;&lt;b&gt;Output&amp;nbsp;&lt;/b&gt;&lt;/font&gt;&lt;div&gt;&lt;font style=&quot;font-size: 17px;&quot;&gt;(Question Parsing + CoT Parsing)&lt;/font&gt;&lt;/div&gt;" style="whiteSpace=wrap;html=1;fillColor=#d5e8d4;strokeColor=#82b366;strokeWidth=2;" parent="1" vertex="1">
          <mxGeometry x="535" y="90" width="265" height="60" as="geometry" />
        </mxCell>
        <mxCell id="iGal7SMV2jzwZDCOHfrg-21" style="edgeStyle=orthogonalEdgeStyle;rounded=0;orthogonalLoop=1;jettySize=auto;html=1;" parent="1" source="iGal7SMV2jzwZDCOHfrg-14" target="iGal7SMV2jzwZDCOHfrg-20" edge="1">
          <mxGeometry relative="1" as="geometry" />
        </mxCell>
        <mxCell id="iGal7SMV2jzwZDCOHfrg-14" value="&lt;font style=&quot;font-size: 17px;&quot;&gt;Raw Logical Puzzles&lt;/font&gt;" style="rounded=0;whiteSpace=wrap;html=1;fillColor=#dae8fc;strokeColor=#6c8ebf;strokeWidth=2;" parent="1" vertex="1">
          <mxGeometry x="40" y="263.75" width="170" height="47.5" as="geometry" />
        </mxCell>
        <mxCell id="iGal7SMV2jzwZDCOHfrg-17" value="&lt;font style=&quot;font-size: 17px;&quot;&gt;700dataset.json&lt;/font&gt;" style="whiteSpace=wrap;html=1;rounded=0;fillColor=#d5e8d4;strokeColor=#82b366;strokeWidth=2;" parent="1" vertex="1">
          <mxGeometry x="570" y="266.25" width="180" height="42.5" as="geometry" />
        </mxCell>
        <mxCell id="iGal7SMV2jzwZDCOHfrg-22" style="edgeStyle=orthogonalEdgeStyle;rounded=0;orthogonalLoop=1;jettySize=auto;html=1;" parent="1" source="iGal7SMV2jzwZDCOHfrg-20" target="iGal7SMV2jzwZDCOHfrg-17" edge="1">
          <mxGeometry relative="1" as="geometry" />
        </mxCell>
        <mxCell id="iGal7SMV2jzwZDCOHfrg-20" value="&lt;font style=&quot;font-size: 20px;&quot;&gt;Synthetic Data Generator&lt;/font&gt;" style="rounded=1;whiteSpace=wrap;html=1;fillColor=#f0a30a;strokeColor=#BD7000;fontColor=#000000;" parent="1" vertex="1">
          <mxGeometry x="300" y="245" width="180" height="85" as="geometry" />
        </mxCell>
        <mxCell id="iGal7SMV2jzwZDCOHfrg-31" style="edgeStyle=orthogonalEdgeStyle;rounded=0;orthogonalLoop=1;jettySize=auto;html=1;entryX=0;entryY=0.5;entryDx=0;entryDy=0;" parent="1" source="iGal7SMV2jzwZDCOHfrg-23" target="iGal7SMV2jzwZDCOHfrg-25" edge="1">
          <mxGeometry relative="1" as="geometry" />
        </mxCell>
        <mxCell id="iGal7SMV2jzwZDCOHfrg-23" value="&lt;font style=&quot;font-size: 17px;&quot;&gt;700dataset.json&lt;/font&gt;" style="whiteSpace=wrap;html=1;rounded=0;fillColor=#dae8fc;strokeColor=#6c8ebf;strokeWidth=2;" parent="1" vertex="1">
          <mxGeometry x="35" y="487.5" width="155" height="42.5" as="geometry" />
        </mxCell>
        <mxCell id="iGal7SMV2jzwZDCOHfrg-32" style="edgeStyle=orthogonalEdgeStyle;rounded=0;orthogonalLoop=1;jettySize=auto;html=1;entryX=0;entryY=0.5;entryDx=0;entryDy=0;" parent="1" source="iGal7SMV2jzwZDCOHfrg-24" target="iGal7SMV2jzwZDCOHfrg-28" edge="1">
          <mxGeometry relative="1" as="geometry" />
        </mxCell>
        <mxCell id="iGal7SMV2jzwZDCOHfrg-24" value="&lt;font style=&quot;font-size: 20px;&quot;&gt;Build QP training dataset&lt;/font&gt;" style="rounded=1;whiteSpace=wrap;html=1;fillColor=#f0a30a;strokeColor=#BD7000;fontColor=#000000;" parent="1" vertex="1">
          <mxGeometry x="300" y="402.5" width="180" height="85" as="geometry" />
        </mxCell>
        <mxCell id="iGal7SMV2jzwZDCOHfrg-33" style="edgeStyle=orthogonalEdgeStyle;rounded=0;orthogonalLoop=1;jettySize=auto;html=1;entryX=0;entryY=0.5;entryDx=0;entryDy=0;" parent="1" source="iGal7SMV2jzwZDCOHfrg-25" target="iGal7SMV2jzwZDCOHfrg-29" edge="1">
          <mxGeometry relative="1" as="geometry" />
        </mxCell>
        <mxCell id="iGal7SMV2jzwZDCOHfrg-25" value="&lt;font style=&quot;font-size: 20px;&quot;&gt;Build CoT training dataset&lt;/font&gt;" style="rounded=1;whiteSpace=wrap;html=1;fillColor=#f0a30a;strokeColor=#BD7000;fontColor=#000000;" parent="1" vertex="1">
          <mxGeometry x="300" y="540" width="180" height="85" as="geometry" />
        </mxCell>
        <mxCell id="iGal7SMV2jzwZDCOHfrg-28" value="&lt;font style=&quot;font-size: 16px;&quot;&gt;train_question_parsing.jsonl&lt;/font&gt;" style="rounded=0;whiteSpace=wrap;html=1;fillColor=#d5e8d4;strokeColor=#82b366;strokeWidth=2;" parent="1" vertex="1">
          <mxGeometry x="555" y="428.75" width="225" height="32.5" as="geometry" />
        </mxCell>
        <mxCell id="iGal7SMV2jzwZDCOHfrg-29" value="&lt;font style=&quot;font-size: 16px;&quot;&gt;train_cot_parsing.jsonl&lt;/font&gt;" style="rounded=0;whiteSpace=wrap;html=1;fillColor=#d5e8d4;strokeColor=#82b366;strokeWidth=2;" parent="1" vertex="1">
          <mxGeometry x="555" y="570" width="225" height="26.25" as="geometry" />
        </mxCell>
        <mxCell id="iGal7SMV2jzwZDCOHfrg-30" style="edgeStyle=orthogonalEdgeStyle;rounded=0;orthogonalLoop=1;jettySize=auto;html=1;entryX=0.006;entryY=0.359;entryDx=0;entryDy=0;entryPerimeter=0;" parent="1" source="iGal7SMV2jzwZDCOHfrg-23" target="iGal7SMV2jzwZDCOHfrg-24" edge="1">
          <mxGeometry relative="1" as="geometry" />
        </mxCell>
        <mxCell id="iGal7SMV2jzwZDCOHfrg-34" value="&lt;font style=&quot;font-size: 15px;&quot;&gt;train_question_parsing.jsonl&lt;/font&gt;" style="rounded=0;whiteSpace=wrap;html=1;fillColor=#dae8fc;strokeColor=#6c8ebf;strokeWidth=2;" parent="1" vertex="1">
          <mxGeometry x="30" y="769.37" width="203.75" height="30" as="geometry" />
        </mxCell>
        <mxCell id="iGal7SMV2jzwZDCOHfrg-35" value="&lt;font style=&quot;font-size: 18px;&quot;&gt;Fine-tune QP Model&lt;/font&gt;" style="rounded=1;whiteSpace=wrap;html=1;fillColor=#76608a;fontColor=#ffffff;strokeColor=#432D57;" parent="1" vertex="1">
          <mxGeometry x="340" y="751.25" width="170" height="70" as="geometry" />
        </mxCell>
        <mxCell id="iGal7SMV2jzwZDCOHfrg-36" value="&lt;font style=&quot;font-size: 18px;&quot;&gt;Fine-tune CoT Model&lt;/font&gt;" style="rounded=1;whiteSpace=wrap;html=1;fillColor=#76608a;fontColor=#ffffff;strokeColor=#432D57;" parent="1" vertex="1">
          <mxGeometry x="340" y="859.0600000000001" width="170" height="70" as="geometry" />
        </mxCell>
        <mxCell id="iGal7SMV2jzwZDCOHfrg-67" style="edgeStyle=orthogonalEdgeStyle;rounded=0;orthogonalLoop=1;jettySize=auto;html=1;entryX=0;entryY=0.75;entryDx=0;entryDy=0;" parent="1" source="iGal7SMV2jzwZDCOHfrg-38" target="iGal7SMV2jzwZDCOHfrg-42" edge="1">
          <mxGeometry relative="1" as="geometry">
            <Array as="points">
              <mxPoint x="262" y="893" />
            </Array>
          </mxGeometry>
        </mxCell>
        <mxCell id="iGal7SMV2jzwZDCOHfrg-38" value="&lt;font style=&quot;font-size: 16px;&quot;&gt;train_cot_parsing.jsonl&lt;/font&gt;" style="rounded=0;whiteSpace=wrap;html=1;fillColor=#dae8fc;strokeColor=#6c8ebf;strokeWidth=2;" parent="1" vertex="1">
          <mxGeometry x="36.25" y="876.7199999999999" width="197.5" height="28.12" as="geometry" />
        </mxCell>
        <mxCell id="iGal7SMV2jzwZDCOHfrg-40" value="&lt;font style=&quot;font-size: 16px;&quot;&gt;Fine-tuned QP adapter&lt;/font&gt;" style="rounded=0;whiteSpace=wrap;html=1;fillColor=#d5e8d4;strokeColor=#82b366;strokeWidth=2;" parent="1" vertex="1">
          <mxGeometry x="625" y="769.37" width="190" height="33.75" as="geometry" />
        </mxCell>
        <mxCell id="iGal7SMV2jzwZDCOHfrg-41" value="&lt;font style=&quot;font-size: 16px;&quot;&gt;Fine-tuned CoT adapter&lt;/font&gt;" style="rounded=0;whiteSpace=wrap;html=1;fillColor=#d5e8d4;strokeColor=#82b366;strokeWidth=2;" parent="1" vertex="1">
          <mxGeometry x="625" y="873.4300000000001" width="195" height="34.69" as="geometry" />
        </mxCell>
        <mxCell id="iGal7SMV2jzwZDCOHfrg-64" style="edgeStyle=orthogonalEdgeStyle;rounded=0;orthogonalLoop=1;jettySize=auto;html=1;entryX=0;entryY=0.5;entryDx=0;entryDy=0;exitX=0.996;exitY=0.359;exitDx=0;exitDy=0;exitPerimeter=0;" parent="1" source="iGal7SMV2jzwZDCOHfrg-42" target="iGal7SMV2jzwZDCOHfrg-40" edge="1">
          <mxGeometry relative="1" as="geometry" />
        </mxCell>
        <mxCell id="iGal7SMV2jzwZDCOHfrg-66" style="edgeStyle=orthogonalEdgeStyle;rounded=0;orthogonalLoop=1;jettySize=auto;html=1;entryX=0;entryY=0.5;entryDx=0;entryDy=0;exitX=1.004;exitY=0.73;exitDx=0;exitDy=0;exitPerimeter=0;" parent="1" source="iGal7SMV2jzwZDCOHfrg-42" target="iGal7SMV2jzwZDCOHfrg-41" edge="1">
          <mxGeometry relative="1" as="geometry">
            <Array as="points">
              <mxPoint x="571" y="890" />
              <mxPoint x="598" y="890" />
            </Array>
          </mxGeometry>
        </mxCell>
        <mxCell id="iGal7SMV2jzwZDCOHfrg-42" value="" style="rounded=0;whiteSpace=wrap;html=1;dashed=1;strokeWidth=2;strokeColor=#4D4D4D;fillColor=none;" parent="1" vertex="1">
          <mxGeometry x="290" y="690" width="280" height="270" as="geometry" />
        </mxCell>
        <mxCell id="iGal7SMV2jzwZDCOHfrg-43" value="&lt;font style=&quot;font-size: 20px;&quot;&gt;&lt;b&gt;Model Training&lt;/b&gt;&lt;/font&gt;" style="text;html=1;align=center;verticalAlign=middle;whiteSpace=wrap;rounded=0;" parent="1" vertex="1">
          <mxGeometry x="345" y="710" width="170" height="20" as="geometry" />
        </mxCell>
        <mxCell id="iGal7SMV2jzwZDCOHfrg-54" style="edgeStyle=orthogonalEdgeStyle;rounded=0;orthogonalLoop=1;jettySize=auto;html=1;entryX=-0.014;entryY=0.348;entryDx=0;entryDy=0;entryPerimeter=0;" parent="1" source="iGal7SMV2jzwZDCOHfrg-34" target="iGal7SMV2jzwZDCOHfrg-42" edge="1">
          <mxGeometry relative="1" as="geometry" />
        </mxCell>
        <mxCell id="iGal7SMV2jzwZDCOHfrg-77" style="edgeStyle=orthogonalEdgeStyle;rounded=0;orthogonalLoop=1;jettySize=auto;html=1;entryX=0;entryY=0.5;entryDx=0;entryDy=0;" parent="1" source="iGal7SMV2jzwZDCOHfrg-69" target="iGal7SMV2jzwZDCOHfrg-70" edge="1">
          <mxGeometry relative="1" as="geometry" />
        </mxCell>
        <mxCell id="iGal7SMV2jzwZDCOHfrg-78" style="edgeStyle=orthogonalEdgeStyle;rounded=0;orthogonalLoop=1;jettySize=auto;html=1;entryX=0;entryY=0.5;entryDx=0;entryDy=0;" parent="1" source="iGal7SMV2jzwZDCOHfrg-69" target="iGal7SMV2jzwZDCOHfrg-71" edge="1">
          <mxGeometry relative="1" as="geometry" />
        </mxCell>
        <mxCell id="iGal7SMV2jzwZDCOHfrg-69" value="&lt;font style=&quot;font-size: 16px;&quot;&gt;TestingData-blank&lt;/font&gt;&lt;div&gt;&lt;font size=&quot;3&quot;&gt;(no QP or CoT)&lt;/font&gt;&lt;/div&gt;" style="rounded=0;whiteSpace=wrap;html=1;fillColor=#dae8fc;strokeColor=#6c8ebf;strokeWidth=2;" parent="1" vertex="1">
          <mxGeometry x="26.25" y="1090" width="163.75" height="50" as="geometry" />
        </mxCell>
        <mxCell id="iGal7SMV2jzwZDCOHfrg-79" style="edgeStyle=orthogonalEdgeStyle;rounded=0;orthogonalLoop=1;jettySize=auto;html=1;entryX=0;entryY=0.5;entryDx=0;entryDy=0;" parent="1" source="iGal7SMV2jzwZDCOHfrg-70" target="iGal7SMV2jzwZDCOHfrg-72" edge="1">
          <mxGeometry relative="1" as="geometry" />
        </mxCell>
        <mxCell id="iGal7SMV2jzwZDCOHfrg-70" value="&lt;font style=&quot;font-size: 16px;&quot;&gt;Load QP Adapter&lt;/font&gt;" style="rounded=1;whiteSpace=wrap;html=1;fillColor=#76608a;strokeColor=#432D57;strokeWidth=2;fontColor=#ffffff;" parent="1" vertex="1">
          <mxGeometry x="285" y="1030" width="140" height="60" as="geometry" />
        </mxCell>
        <mxCell id="iGal7SMV2jzwZDCOHfrg-80" style="edgeStyle=orthogonalEdgeStyle;rounded=0;orthogonalLoop=1;jettySize=auto;html=1;entryX=0;entryY=0.5;entryDx=0;entryDy=0;" parent="1" source="iGal7SMV2jzwZDCOHfrg-71" target="iGal7SMV2jzwZDCOHfrg-73" edge="1">
          <mxGeometry relative="1" as="geometry" />
        </mxCell>
        <mxCell id="iGal7SMV2jzwZDCOHfrg-71" value="&lt;font style=&quot;font-size: 16px;&quot;&gt;Load CoT Adapter&lt;/font&gt;" style="rounded=1;whiteSpace=wrap;html=1;fillColor=#76608a;strokeColor=#432D57;strokeWidth=2;fontColor=#ffffff;" parent="1" vertex="1">
          <mxGeometry x="285" y="1150" width="140" height="60" as="geometry" />
        </mxCell>
        <mxCell id="iGal7SMV2jzwZDCOHfrg-81" style="edgeStyle=orthogonalEdgeStyle;rounded=0;orthogonalLoop=1;jettySize=auto;html=1;entryX=0;entryY=0.5;entryDx=0;entryDy=0;" parent="1" source="iGal7SMV2jzwZDCOHfrg-72" target="iGal7SMV2jzwZDCOHfrg-74" edge="1">
          <mxGeometry relative="1" as="geometry" />
        </mxCell>
        <mxCell id="iGal7SMV2jzwZDCOHfrg-72" value="&lt;font style=&quot;font-size: 15px;&quot;&gt;Generate question parsing&lt;/font&gt;" style="rounded=1;whiteSpace=wrap;html=1;fillColor=#f0a30a;strokeColor=#BD7000;strokeWidth=2;fontColor=#000000;" parent="1" vertex="1">
          <mxGeometry x="490" y="1040" width="190" height="40" as="geometry" />
        </mxCell>
        <mxCell id="iGal7SMV2jzwZDCOHfrg-82" style="edgeStyle=orthogonalEdgeStyle;rounded=0;orthogonalLoop=1;jettySize=auto;html=1;entryX=0;entryY=0.5;entryDx=0;entryDy=0;" parent="1" source="iGal7SMV2jzwZDCOHfrg-73" target="iGal7SMV2jzwZDCOHfrg-74" edge="1">
          <mxGeometry relative="1" as="geometry" />
        </mxCell>
        <mxCell id="iGal7SMV2jzwZDCOHfrg-73" value="&lt;font style=&quot;font-size: 15px;&quot;&gt;Generate CoT parsing&lt;/font&gt;" style="rounded=1;whiteSpace=wrap;html=1;strokeWidth=2;fillColor=#f0a30a;strokeColor=#BD7000;fontColor=#000000;" parent="1" vertex="1">
          <mxGeometry x="495" y="1160" width="180" height="40" as="geometry" />
        </mxCell>
        <mxCell id="iGal7SMV2jzwZDCOHfrg-76" value="" style="edgeStyle=orthogonalEdgeStyle;rounded=0;orthogonalLoop=1;jettySize=auto;html=1;" parent="1" source="iGal7SMV2jzwZDCOHfrg-74" target="iGal7SMV2jzwZDCOHfrg-75" edge="1">
          <mxGeometry relative="1" as="geometry" />
        </mxCell>
        <mxCell id="iGal7SMV2jzwZDCOHfrg-74" value="&lt;font style=&quot;font-size: 14px;&quot;&gt;Combine Results&lt;/font&gt;" style="rhombus;whiteSpace=wrap;html=1;fillColor=#a0522d;strokeColor=#6D1F00;strokeWidth=2;fontColor=#ffffff;" parent="1" vertex="1">
          <mxGeometry x="730" y="1070" width="100" height="100" as="geometry" />
        </mxCell>
        <mxCell id="iGal7SMV2jzwZDCOHfrg-75" value="&lt;font style=&quot;font-size: 16px;&quot;&gt;Final Predictions&lt;/font&gt;" style="whiteSpace=wrap;html=1;fillColor=#d5e8d4;strokeColor=#82b366;strokeWidth=2;" parent="1" vertex="1">
          <mxGeometry x="900" y="1100" width="130" height="40" as="geometry" />
        </mxCell>
        <mxCell id="iGal7SMV2jzwZDCOHfrg-85" style="edgeStyle=orthogonalEdgeStyle;rounded=0;orthogonalLoop=1;jettySize=auto;html=1;entryX=0;entryY=0.5;entryDx=0;entryDy=0;" parent="1" source="iGal7SMV2jzwZDCOHfrg-83" target="iGal7SMV2jzwZDCOHfrg-84" edge="1">
          <mxGeometry relative="1" as="geometry" />
        </mxCell>
        <mxCell id="iGal7SMV2jzwZDCOHfrg-83" value="&lt;font style=&quot;font-size: 16px;&quot;&gt;Final Predictions&lt;/font&gt;" style="whiteSpace=wrap;html=1;fillColor=#dae8fc;strokeColor=#6c8ebf;strokeWidth=2;" parent="1" vertex="1">
          <mxGeometry x="103.75" y="1340" width="130" height="40" as="geometry" />
        </mxCell>
        <mxCell id="iGal7SMV2jzwZDCOHfrg-90" style="edgeStyle=orthogonalEdgeStyle;rounded=0;orthogonalLoop=1;jettySize=auto;html=1;entryX=0;entryY=0.5;entryDx=0;entryDy=0;" parent="1" source="iGal7SMV2jzwZDCOHfrg-84" target="iGal7SMV2jzwZDCOHfrg-88" edge="1">
          <mxGeometry relative="1" as="geometry" />
        </mxCell>
        <mxCell id="iGal7SMV2jzwZDCOHfrg-84" value="&lt;font style=&quot;font-size: 21px;&quot;&gt;Run Evaluation&lt;/font&gt;" style="rounded=1;whiteSpace=wrap;html=1;fillColor=#d80073;fontColor=#ffffff;strokeColor=#A50040;" parent="1" vertex="1">
          <mxGeometry x="320" y="1320" width="190" height="80" as="geometry" />
        </mxCell>
        <mxCell id="iGal7SMV2jzwZDCOHfrg-88" value="&lt;font style=&quot;font-size: 16px;&quot;&gt;Macro F1 Metrics&lt;/font&gt;" style="rounded=0;whiteSpace=wrap;html=1;fillColor=#d5e8d4;strokeColor=#82b366;strokeWidth=2;" parent="1" vertex="1">
          <mxGeometry x="577.5" y="1340" width="165" height="40" as="geometry" />
        </mxCell>
      </root>
    </mxGraphModel>
  </diagram>
  <diagram id="l1LTEpX26JQ7Ghw6L6Hd" name="Page-2">
    <mxGraphModel dx="2173" dy="893" grid="1" gridSize="10" guides="1" tooltips="1" connect="1" arrows="1" fold="1" page="1" pageScale="1" pageWidth="850" pageHeight="1100" math="0" shadow="0">
      <root>
        <mxCell id="0" />
        <mxCell id="1" parent="0" />
        <mxCell id="7QmiL4anUGJbgG_xAmwS-3" style="edgeStyle=orthogonalEdgeStyle;rounded=0;orthogonalLoop=1;jettySize=auto;html=1;entryX=0;entryY=0.5;entryDx=0;entryDy=0;" parent="1" source="7QmiL4anUGJbgG_xAmwS-1" target="7QmiL4anUGJbgG_xAmwS-2" edge="1">
          <mxGeometry relative="1" as="geometry" />
        </mxCell>
        <mxCell id="7QmiL4anUGJbgG_xAmwS-1" value="&lt;font style=&quot;font-size: 15px;&quot;&gt;QP List&lt;/font&gt;" style="rounded=0;whiteSpace=wrap;html=1;fillColor=#ffe6cc;strokeColor=#d79b00;strokeWidth=2;" parent="1" vertex="1">
          <mxGeometry x="110" y="80" width="70" height="30" as="geometry" />
        </mxCell>
        <mxCell id="7QmiL4anUGJbgG_xAmwS-9" value="" style="edgeStyle=orthogonalEdgeStyle;rounded=0;orthogonalLoop=1;jettySize=auto;html=1;" parent="1" source="7QmiL4anUGJbgG_xAmwS-2" target="7QmiL4anUGJbgG_xAmwS-4" edge="1">
          <mxGeometry relative="1" as="geometry" />
        </mxCell>
        <mxCell id="7QmiL4anUGJbgG_xAmwS-2" value="&lt;font style=&quot;font-size: 19px;&quot;&gt;CoT Model&amp;nbsp;&lt;/font&gt;" style="rounded=1;whiteSpace=wrap;html=1;fillColor=#76608a;fontColor=#ffffff;strokeColor=#432D57;" parent="1" vertex="1">
          <mxGeometry x="220" y="65" width="120" height="60" as="geometry" />
        </mxCell>
        <mxCell id="7QmiL4anUGJbgG_xAmwS-11" value="" style="edgeStyle=orthogonalEdgeStyle;rounded=0;orthogonalLoop=1;jettySize=auto;html=1;" parent="1" source="7QmiL4anUGJbgG_xAmwS-4" target="7QmiL4anUGJbgG_xAmwS-10" edge="1">
          <mxGeometry relative="1" as="geometry" />
        </mxCell>
        <mxCell id="7QmiL4anUGJbgG_xAmwS-4" value="&lt;font style=&quot;font-size: 14px;&quot;&gt;Five CP candidates&lt;/font&gt;" style="rounded=0;whiteSpace=wrap;html=1;fillColor=#ffe6cc;strokeColor=#d79b00;strokeWidth=2;" parent="1" vertex="1">
          <mxGeometry x="380" y="82.5" width="130" height="25" as="geometry" />
        </mxCell>
        <mxCell id="7QmiL4anUGJbgG_xAmwS-6" style="edgeStyle=orthogonalEdgeStyle;rounded=0;orthogonalLoop=1;jettySize=auto;html=1;entryX=0;entryY=0.5;entryDx=0;entryDy=0;" parent="1" source="7QmiL4anUGJbgG_xAmwS-5" target="7QmiL4anUGJbgG_xAmwS-1" edge="1">
          <mxGeometry relative="1" as="geometry" />
        </mxCell>
        <mxCell id="7QmiL4anUGJbgG_xAmwS-5" value="&lt;font style=&quot;font-size: 16px;&quot;&gt;QP Model&lt;/font&gt;" style="rounded=1;whiteSpace=wrap;html=1;fillColor=#76608a;strokeColor=#432D57;strokeWidth=1;fontColor=#ffffff;" parent="1" vertex="1">
          <mxGeometry x="-50" y="65" width="120" height="60" as="geometry" />
        </mxCell>
        <mxCell id="7QmiL4anUGJbgG_xAmwS-8" style="edgeStyle=orthogonalEdgeStyle;rounded=0;orthogonalLoop=1;jettySize=auto;html=1;" parent="1" source="7QmiL4anUGJbgG_xAmwS-7" target="7QmiL4anUGJbgG_xAmwS-5" edge="1">
          <mxGeometry relative="1" as="geometry" />
        </mxCell>
        <mxCell id="7QmiL4anUGJbgG_xAmwS-7" value="&lt;font style=&quot;font-size: 15px;&quot;&gt;Testing Data&lt;/font&gt;" style="rounded=0;whiteSpace=wrap;html=1;fillColor=#dae8fc;strokeColor=#6c8ebf;strokeWidth=2;" parent="1" vertex="1">
          <mxGeometry x="-180" y="81.25" width="100" height="28.75" as="geometry" />
        </mxCell>
        <mxCell id="7QmiL4anUGJbgG_xAmwS-14" value="" style="edgeStyle=orthogonalEdgeStyle;rounded=0;orthogonalLoop=1;jettySize=auto;html=1;" parent="1" source="7QmiL4anUGJbgG_xAmwS-10" target="7QmiL4anUGJbgG_xAmwS-12" edge="1">
          <mxGeometry relative="1" as="geometry" />
        </mxCell>
        <mxCell id="7QmiL4anUGJbgG_xAmwS-10" value="&lt;font style=&quot;font-size: 18px;&quot;&gt;Reward Model&lt;/font&gt;" style="rounded=1;whiteSpace=wrap;html=1;fillColor=#1ba1e2;fontColor=#ffffff;strokeColor=#006EAF;" parent="1" vertex="1">
          <mxGeometry x="540" y="60" width="130" height="70" as="geometry" />
        </mxCell>
        <mxCell id="7QmiL4anUGJbgG_xAmwS-12" value="&lt;font style=&quot;font-size: 14px;&quot;&gt;Top Scoring CP&lt;/font&gt;" style="rounded=0;whiteSpace=wrap;html=1;fillColor=#d5e8d4;strokeColor=#82b366;strokeWidth=2;" parent="1" vertex="1">
          <mxGeometry x="700" y="83.75" width="110" height="22.5" as="geometry" />
        </mxCell>
        <mxCell id="7QmiL4anUGJbgG_xAmwS-35" style="edgeStyle=orthogonalEdgeStyle;rounded=0;orthogonalLoop=1;jettySize=auto;html=1;entryX=0;entryY=0.5;entryDx=0;entryDy=0;" parent="1" source="7QmiL4anUGJbgG_xAmwS-15" target="7QmiL4anUGJbgG_xAmwS-18" edge="1">
          <mxGeometry relative="1" as="geometry" />
        </mxCell>
        <mxCell id="7QmiL4anUGJbgG_xAmwS-36" style="edgeStyle=orthogonalEdgeStyle;rounded=0;orthogonalLoop=1;jettySize=auto;html=1;entryX=0;entryY=0.5;entryDx=0;entryDy=0;" parent="1" source="7QmiL4anUGJbgG_xAmwS-15" target="7QmiL4anUGJbgG_xAmwS-19" edge="1">
          <mxGeometry relative="1" as="geometry" />
        </mxCell>
        <mxCell id="7QmiL4anUGJbgG_xAmwS-15" value="&lt;font style=&quot;font-size: 15px;&quot;&gt;Testing Data&lt;/font&gt;" style="rounded=0;whiteSpace=wrap;html=1;fillColor=#dae8fc;strokeColor=#6c8ebf;strokeWidth=2;" parent="1" vertex="1">
          <mxGeometry x="-240" y="351.25" width="100" height="28.75" as="geometry" />
        </mxCell>
        <mxCell id="7QmiL4anUGJbgG_xAmwS-37" value="" style="edgeStyle=orthogonalEdgeStyle;rounded=0;orthogonalLoop=1;jettySize=auto;html=1;" parent="1" source="7QmiL4anUGJbgG_xAmwS-18" target="7QmiL4anUGJbgG_xAmwS-20" edge="1">
          <mxGeometry relative="1" as="geometry" />
        </mxCell>
        <mxCell id="7QmiL4anUGJbgG_xAmwS-18" value="&lt;font style=&quot;font-size: 16px;&quot;&gt;QP Model&lt;/font&gt;" style="rounded=1;whiteSpace=wrap;html=1;fillColor=#76608a;strokeColor=#432D57;strokeWidth=1;fontColor=#ffffff;" parent="1" vertex="1">
          <mxGeometry x="-80" y="291.25" width="120" height="60" as="geometry" />
        </mxCell>
        <mxCell id="7QmiL4anUGJbgG_xAmwS-38" value="" style="edgeStyle=orthogonalEdgeStyle;rounded=0;orthogonalLoop=1;jettySize=auto;html=1;" parent="1" source="7QmiL4anUGJbgG_xAmwS-19" target="7QmiL4anUGJbgG_xAmwS-21" edge="1">
          <mxGeometry relative="1" as="geometry" />
        </mxCell>
        <mxCell id="7QmiL4anUGJbgG_xAmwS-19" value="&lt;font style=&quot;font-size: 16px;&quot;&gt;CoT Model&lt;/font&gt;" style="rounded=1;whiteSpace=wrap;html=1;fillColor=#76608a;strokeColor=#432D57;strokeWidth=1;fontColor=#ffffff;" parent="1" vertex="1">
          <mxGeometry x="-80" y="401.25" width="120" height="60" as="geometry" />
        </mxCell>
        <mxCell id="7QmiL4anUGJbgG_xAmwS-39" value="" style="edgeStyle=orthogonalEdgeStyle;rounded=0;orthogonalLoop=1;jettySize=auto;html=1;" parent="1" source="7QmiL4anUGJbgG_xAmwS-20" target="7QmiL4anUGJbgG_xAmwS-22" edge="1">
          <mxGeometry relative="1" as="geometry" />
        </mxCell>
        <mxCell id="7QmiL4anUGJbgG_xAmwS-20" value="&lt;font style=&quot;font-size: 15px;&quot;&gt;QP Candidates (3)&lt;/font&gt;" style="rounded=0;whiteSpace=wrap;html=1;fillColor=#ffe6cc;strokeColor=#d79b00;strokeWidth=2;" parent="1" vertex="1">
          <mxGeometry x="70" y="308.75" width="140" height="25" as="geometry" />
        </mxCell>
        <mxCell id="7QmiL4anUGJbgG_xAmwS-40" value="" style="edgeStyle=orthogonalEdgeStyle;rounded=0;orthogonalLoop=1;jettySize=auto;html=1;" parent="1" source="7QmiL4anUGJbgG_xAmwS-21" target="7QmiL4anUGJbgG_xAmwS-23" edge="1">
          <mxGeometry relative="1" as="geometry" />
        </mxCell>
        <mxCell id="7QmiL4anUGJbgG_xAmwS-21" value="&lt;font style=&quot;font-size: 15px;&quot;&gt;CoT Candidates (3)&lt;/font&gt;" style="rounded=0;whiteSpace=wrap;html=1;fillColor=#ffe6cc;strokeColor=#d79b00;strokeWidth=2;" parent="1" vertex="1">
          <mxGeometry x="70" y="418.75" width="140" height="25" as="geometry" />
        </mxCell>
        <mxCell id="7QmiL4anUGJbgG_xAmwS-41" value="" style="edgeStyle=orthogonalEdgeStyle;rounded=0;orthogonalLoop=1;jettySize=auto;html=1;" parent="1" source="7QmiL4anUGJbgG_xAmwS-22" target="7QmiL4anUGJbgG_xAmwS-24" edge="1">
          <mxGeometry relative="1" as="geometry" />
        </mxCell>
        <mxCell id="7QmiL4anUGJbgG_xAmwS-22" value="&lt;font style=&quot;font-size: 15px;&quot;&gt;DeBERTa Verifier&lt;/font&gt;" style="rounded=1;whiteSpace=wrap;html=1;fillColor=#6d8764;fontColor=#ffffff;strokeColor=#3A5431;" parent="1" vertex="1">
          <mxGeometry x="250" y="290" width="130" height="62.5" as="geometry" />
        </mxCell>
        <mxCell id="7QmiL4anUGJbgG_xAmwS-42" value="" style="edgeStyle=orthogonalEdgeStyle;rounded=0;orthogonalLoop=1;jettySize=auto;html=1;" parent="1" source="7QmiL4anUGJbgG_xAmwS-23" target="7QmiL4anUGJbgG_xAmwS-25" edge="1">
          <mxGeometry relative="1" as="geometry" />
        </mxCell>
        <mxCell id="7QmiL4anUGJbgG_xAmwS-23" value="&lt;font style=&quot;font-size: 15px;&quot;&gt;DeBERTa Verfier&lt;/font&gt;" style="rounded=1;whiteSpace=wrap;html=1;fillColor=#6d8764;fontColor=#ffffff;strokeColor=#3A5431;" parent="1" vertex="1">
          <mxGeometry x="250" y="397.5" width="130" height="67.5" as="geometry" />
        </mxCell>
        <mxCell id="7QmiL4anUGJbgG_xAmwS-43" style="edgeStyle=orthogonalEdgeStyle;rounded=0;orthogonalLoop=1;jettySize=auto;html=1;entryX=0;entryY=0.5;entryDx=0;entryDy=0;" parent="1" source="7QmiL4anUGJbgG_xAmwS-24" target="7QmiL4anUGJbgG_xAmwS-28" edge="1">
          <mxGeometry relative="1" as="geometry" />
        </mxCell>
        <mxCell id="7QmiL4anUGJbgG_xAmwS-24" value="&lt;font style=&quot;font-size: 14px;&quot;&gt;QP scores&lt;/font&gt;" style="rounded=0;whiteSpace=wrap;html=1;fillColor=#ffe6cc;strokeColor=#d79b00;strokeWidth=2;" parent="1" vertex="1">
          <mxGeometry x="410" y="310" width="100" height="22.5" as="geometry" />
        </mxCell>
        <mxCell id="7QmiL4anUGJbgG_xAmwS-44" style="edgeStyle=orthogonalEdgeStyle;rounded=0;orthogonalLoop=1;jettySize=auto;html=1;entryX=0;entryY=0.5;entryDx=0;entryDy=0;" parent="1" source="7QmiL4anUGJbgG_xAmwS-25" target="7QmiL4anUGJbgG_xAmwS-28" edge="1">
          <mxGeometry relative="1" as="geometry" />
        </mxCell>
        <mxCell id="7QmiL4anUGJbgG_xAmwS-25" value="&lt;font style=&quot;font-size: 14px;&quot;&gt;CoT scores&lt;/font&gt;" style="rounded=0;whiteSpace=wrap;html=1;fillColor=#ffe6cc;strokeColor=#d79b00;strokeWidth=2;" parent="1" vertex="1">
          <mxGeometry x="410" y="420" width="100" height="22.5" as="geometry" />
        </mxCell>
        <mxCell id="7QmiL4anUGJbgG_xAmwS-45" value="" style="edgeStyle=orthogonalEdgeStyle;rounded=0;orthogonalLoop=1;jettySize=auto;html=1;" parent="1" source="7QmiL4anUGJbgG_xAmwS-28" target="7QmiL4anUGJbgG_xAmwS-29" edge="1">
          <mxGeometry relative="1" as="geometry" />
        </mxCell>
        <mxCell id="7QmiL4anUGJbgG_xAmwS-28" value="&lt;font style=&quot;font-size: 13px;&quot;&gt;Normalize &amp;amp; Ensemble&lt;/font&gt;" style="rounded=0;whiteSpace=wrap;html=1;fillColor=#f8cecc;strokeColor=#b85450;strokeWidth=2;" parent="1" vertex="1">
          <mxGeometry x="550" y="357.5" width="100" height="40" as="geometry" />
        </mxCell>
        <mxCell id="7QmiL4anUGJbgG_xAmwS-32" value="" style="edgeStyle=orthogonalEdgeStyle;rounded=0;orthogonalLoop=1;jettySize=auto;html=1;" parent="1" source="7QmiL4anUGJbgG_xAmwS-29" target="7QmiL4anUGJbgG_xAmwS-31" edge="1">
          <mxGeometry relative="1" as="geometry" />
        </mxCell>
        <mxCell id="7QmiL4anUGJbgG_xAmwS-34" value="" style="edgeStyle=orthogonalEdgeStyle;rounded=0;orthogonalLoop=1;jettySize=auto;html=1;" parent="1" source="7QmiL4anUGJbgG_xAmwS-29" target="7QmiL4anUGJbgG_xAmwS-33" edge="1">
          <mxGeometry relative="1" as="geometry" />
        </mxCell>
        <mxCell id="7QmiL4anUGJbgG_xAmwS-29" value="&lt;font&gt;score&amp;nbsp;&lt;span style=&quot;text-align: start;&quot;&gt;≥ threshold&lt;/span&gt;&lt;/font&gt;" style="rhombus;whiteSpace=wrap;html=1;fillColor=#fff2cc;strokeColor=#d6b656;" parent="1" vertex="1">
          <mxGeometry x="680" y="347.5" width="80" height="60" as="geometry" />
        </mxCell>
        <mxCell id="7QmiL4anUGJbgG_xAmwS-31" value="Select (QP+CoT)" style="whiteSpace=wrap;html=1;fillColor=#d5e8d4;strokeColor=#82b366;strokeWidth=2;" parent="1" vertex="1">
          <mxGeometry x="820" y="362.5" width="90" height="30" as="geometry" />
        </mxCell>
        <mxCell id="7QmiL4anUGJbgG_xAmwS-33" value="Fallback highest log-prob" style="whiteSpace=wrap;html=1;fillColor=#d5e8d4;strokeColor=#82b366;strokeWidth=2;" parent="1" vertex="1">
          <mxGeometry x="647.5" y="442.5" width="145" height="30" as="geometry" />
        </mxCell>
        <mxCell id="7QmiL4anUGJbgG_xAmwS-46" value="Yes" style="text;html=1;align=center;verticalAlign=middle;whiteSpace=wrap;rounded=0;" parent="1" vertex="1">
          <mxGeometry x="750" y="347.5" width="60" height="30" as="geometry" />
        </mxCell>
        <mxCell id="7QmiL4anUGJbgG_xAmwS-47" value="No" style="text;html=1;align=center;verticalAlign=middle;whiteSpace=wrap;rounded=0;" parent="1" vertex="1">
          <mxGeometry x="730" y="407.5" width="60" height="30" as="geometry" />
        </mxCell>
        <mxCell id="7QmiL4anUGJbgG_xAmwS-57" style="edgeStyle=orthogonalEdgeStyle;rounded=0;orthogonalLoop=1;jettySize=auto;html=1;entryX=0;entryY=0.5;entryDx=0;entryDy=0;" parent="1" source="7QmiL4anUGJbgG_xAmwS-49" target="7QmiL4anUGJbgG_xAmwS-51" edge="1">
          <mxGeometry relative="1" as="geometry" />
        </mxCell>
        <mxCell id="7QmiL4anUGJbgG_xAmwS-49" value="&lt;font style=&quot;font-size: 15px;&quot;&gt;QP Training Data&lt;/font&gt;" style="rounded=0;whiteSpace=wrap;html=1;fillColor=#dae8fc;strokeColor=#6c8ebf;strokeWidth=2;" parent="1" vertex="1">
          <mxGeometry x="-230" y="615" width="140" height="30" as="geometry" />
        </mxCell>
        <mxCell id="7QmiL4anUGJbgG_xAmwS-58" value="" style="edgeStyle=orthogonalEdgeStyle;rounded=0;orthogonalLoop=1;jettySize=auto;html=1;" parent="1" source="7QmiL4anUGJbgG_xAmwS-50" target="7QmiL4anUGJbgG_xAmwS-55" edge="1">
          <mxGeometry relative="1" as="geometry" />
        </mxCell>
        <mxCell id="7QmiL4anUGJbgG_xAmwS-50" value="&lt;font style=&quot;font-size: 15px;&quot;&gt;CoT Training Data&lt;/font&gt;" style="rounded=0;whiteSpace=wrap;html=1;fillColor=#dae8fc;strokeColor=#6c8ebf;strokeWidth=2;" parent="1" vertex="1">
          <mxGeometry x="-230" y="765" width="140" height="30" as="geometry" />
        </mxCell>
        <mxCell id="7QmiL4anUGJbgG_xAmwS-59" value="" style="edgeStyle=orthogonalEdgeStyle;rounded=0;orthogonalLoop=1;jettySize=auto;html=1;" parent="1" source="7QmiL4anUGJbgG_xAmwS-51" target="7QmiL4anUGJbgG_xAmwS-52" edge="1">
          <mxGeometry relative="1" as="geometry" />
        </mxCell>
        <mxCell id="7QmiL4anUGJbgG_xAmwS-51" value="&lt;font style=&quot;font-size: 15px;&quot;&gt;Generate positive and negative parsing&lt;/font&gt;" style="rounded=0;whiteSpace=wrap;html=1;fillColor=#647687;fontColor=#ffffff;strokeColor=#314354;" parent="1" vertex="1">
          <mxGeometry x="-30" y="600" width="160" height="60" as="geometry" />
        </mxCell>
        <mxCell id="7QmiL4anUGJbgG_xAmwS-61" value="" style="edgeStyle=orthogonalEdgeStyle;rounded=0;orthogonalLoop=1;jettySize=auto;html=1;" parent="1" source="7QmiL4anUGJbgG_xAmwS-52" target="7QmiL4anUGJbgG_xAmwS-54" edge="1">
          <mxGeometry relative="1" as="geometry" />
        </mxCell>
        <mxCell id="7QmiL4anUGJbgG_xAmwS-52" value="&lt;font style=&quot;font-size: 18px;&quot;&gt;DeBERTa Base Model&lt;/font&gt;" style="rounded=1;whiteSpace=wrap;html=1;fillColor=#e1d5e7;strokeColor=#9673a6;strokeWidth=2;" parent="1" vertex="1">
          <mxGeometry x="180" y="595" width="160" height="70" as="geometry" />
        </mxCell>
        <mxCell id="7QmiL4anUGJbgG_xAmwS-53" value="&lt;font style=&quot;font-size: 18px;&quot;&gt;CoT Verifier&lt;/font&gt;" style="rounded=1;whiteSpace=wrap;html=1;fillColor=#6d8764;fontColor=#ffffff;strokeColor=#3A5431;" parent="1" vertex="1">
          <mxGeometry x="395" y="746.25" width="130" height="67.5" as="geometry" />
        </mxCell>
        <mxCell id="7QmiL4anUGJbgG_xAmwS-54" value="&lt;font style=&quot;font-size: 18px;&quot;&gt;QP Verifier&lt;/font&gt;" style="rounded=1;whiteSpace=wrap;html=1;fillColor=#6d8764;fontColor=#ffffff;strokeColor=#3A5431;" parent="1" vertex="1">
          <mxGeometry x="395" y="596.25" width="130" height="67.5" as="geometry" />
        </mxCell>
        <mxCell id="7QmiL4anUGJbgG_xAmwS-60" value="" style="edgeStyle=orthogonalEdgeStyle;rounded=0;orthogonalLoop=1;jettySize=auto;html=1;" parent="1" source="7QmiL4anUGJbgG_xAmwS-55" target="7QmiL4anUGJbgG_xAmwS-56" edge="1">
          <mxGeometry relative="1" as="geometry" />
        </mxCell>
        <mxCell id="7QmiL4anUGJbgG_xAmwS-55" value="&lt;font style=&quot;font-size: 15px;&quot;&gt;Generate positive and negative parsing&lt;/font&gt;" style="rounded=0;whiteSpace=wrap;html=1;fillColor=#647687;fontColor=#ffffff;strokeColor=#314354;" parent="1" vertex="1">
          <mxGeometry x="-30" y="750" width="160" height="60" as="geometry" />
        </mxCell>
        <mxCell id="7QmiL4anUGJbgG_xAmwS-62" value="" style="edgeStyle=orthogonalEdgeStyle;rounded=0;orthogonalLoop=1;jettySize=auto;html=1;" parent="1" source="7QmiL4anUGJbgG_xAmwS-56" target="7QmiL4anUGJbgG_xAmwS-53" edge="1">
          <mxGeometry relative="1" as="geometry" />
        </mxCell>
        <mxCell id="7QmiL4anUGJbgG_xAmwS-56" value="&lt;font style=&quot;font-size: 18px;&quot;&gt;DeBERTa Base Model&lt;/font&gt;" style="rounded=1;whiteSpace=wrap;html=1;fillColor=#e1d5e7;strokeColor=#9673a6;strokeWidth=2;" parent="1" vertex="1">
          <mxGeometry x="180" y="745" width="160" height="70" as="geometry" />
        </mxCell>
        <mxCell id="7QmiL4anUGJbgG_xAmwS-70" value="" style="edgeStyle=orthogonalEdgeStyle;rounded=0;orthogonalLoop=1;jettySize=auto;html=1;" parent="1" source="7QmiL4anUGJbgG_xAmwS-64" target="7QmiL4anUGJbgG_xAmwS-65" edge="1">
          <mxGeometry relative="1" as="geometry" />
        </mxCell>
        <mxCell id="7QmiL4anUGJbgG_xAmwS-64" value="&lt;font style=&quot;font-size: 15px;&quot;&gt;Testing Data&lt;/font&gt;" style="rounded=0;whiteSpace=wrap;html=1;fillColor=#dae8fc;strokeColor=#6c8ebf;strokeWidth=2;" parent="1" vertex="1">
          <mxGeometry x="-300" y="935" width="140" height="30" as="geometry" />
        </mxCell>
        <mxCell id="7QmiL4anUGJbgG_xAmwS-72" value="" style="edgeStyle=orthogonalEdgeStyle;rounded=0;orthogonalLoop=1;jettySize=auto;html=1;" parent="1" source="7QmiL4anUGJbgG_xAmwS-65" target="7QmiL4anUGJbgG_xAmwS-71" edge="1">
          <mxGeometry relative="1" as="geometry" />
        </mxCell>
        <mxCell id="7QmiL4anUGJbgG_xAmwS-65" value="&lt;font style=&quot;font-size: 16px;&quot;&gt;QP Model&lt;/font&gt;&lt;div&gt;&lt;font style=&quot;font-size: 16px;&quot;&gt;(beam search)&lt;/font&gt;&lt;/div&gt;" style="rounded=1;whiteSpace=wrap;html=1;fillColor=#76608a;strokeColor=#432D57;strokeWidth=1;fontColor=#ffffff;" parent="1" vertex="1">
          <mxGeometry x="-110" y="920" width="120" height="60" as="geometry" />
        </mxCell>
        <mxCell id="7QmiL4anUGJbgG_xAmwS-76" value="" style="edgeStyle=orthogonalEdgeStyle;rounded=0;orthogonalLoop=1;jettySize=auto;html=1;" parent="1" source="7QmiL4anUGJbgG_xAmwS-66" target="7QmiL4anUGJbgG_xAmwS-75" edge="1">
          <mxGeometry relative="1" as="geometry" />
        </mxCell>
        <mxCell id="7QmiL4anUGJbgG_xAmwS-66" value="&lt;font style=&quot;font-size: 16px;&quot;&gt;CoT Model&lt;/font&gt;&lt;div&gt;&lt;font style=&quot;font-size: 16px;&quot;&gt;(beam+sample)&lt;/font&gt;&lt;/div&gt;" style="rounded=1;whiteSpace=wrap;html=1;fillColor=#76608a;strokeColor=#432D57;strokeWidth=1;fontColor=#ffffff;" parent="1" vertex="1">
          <mxGeometry x="170" y="920" width="130" height="60" as="geometry" />
        </mxCell>
        <mxCell id="7QmiL4anUGJbgG_xAmwS-78" value="" style="edgeStyle=orthogonalEdgeStyle;rounded=0;orthogonalLoop=1;jettySize=auto;html=1;" parent="1" source="7QmiL4anUGJbgG_xAmwS-68" target="7QmiL4anUGJbgG_xAmwS-69" edge="1">
          <mxGeometry relative="1" as="geometry" />
        </mxCell>
        <mxCell id="7QmiL4anUGJbgG_xAmwS-68" value="&lt;font style=&quot;font-size: 18px;&quot;&gt;CoT Verifier&lt;/font&gt;" style="rounded=1;whiteSpace=wrap;html=1;fillColor=#6d8764;fontColor=#ffffff;strokeColor=#3A5431;" parent="1" vertex="1">
          <mxGeometry x="460" y="927.5" width="130" height="45" as="geometry" />
        </mxCell>
        <mxCell id="7QmiL4anUGJbgG_xAmwS-69" value="&lt;font style=&quot;font-size: 14px;&quot;&gt;Final Predictions&lt;/font&gt;" style="rounded=0;whiteSpace=wrap;html=1;fillColor=#d5e8d4;strokeColor=#82b366;strokeWidth=2;" parent="1" vertex="1">
          <mxGeometry x="630" y="935" width="120" height="30" as="geometry" />
        </mxCell>
        <mxCell id="7QmiL4anUGJbgG_xAmwS-74" value="" style="edgeStyle=orthogonalEdgeStyle;rounded=0;orthogonalLoop=1;jettySize=auto;html=1;" parent="1" source="7QmiL4anUGJbgG_xAmwS-71" target="7QmiL4anUGJbgG_xAmwS-66" edge="1">
          <mxGeometry relative="1" as="geometry" />
        </mxCell>
        <mxCell id="7QmiL4anUGJbgG_xAmwS-71" value="QP candidates" style="rounded=0;whiteSpace=wrap;html=1;fillColor=#ffe6cc;strokeColor=#d79b00;strokeWidth=2;" parent="1" vertex="1">
          <mxGeometry x="40" y="935" width="90" height="30" as="geometry" />
        </mxCell>
        <mxCell id="7QmiL4anUGJbgG_xAmwS-77" value="" style="edgeStyle=orthogonalEdgeStyle;rounded=0;orthogonalLoop=1;jettySize=auto;html=1;" parent="1" source="7QmiL4anUGJbgG_xAmwS-75" target="7QmiL4anUGJbgG_xAmwS-68" edge="1">
          <mxGeometry relative="1" as="geometry" />
        </mxCell>
        <mxCell id="7QmiL4anUGJbgG_xAmwS-75" value="CP candidates" style="rounded=0;whiteSpace=wrap;html=1;fillColor=#ffe6cc;strokeColor=#d79b00;strokeWidth=2;" parent="1" vertex="1">
          <mxGeometry x="330" y="935" width="90" height="30" as="geometry" />
        </mxCell>
      </root>
    </mxGraphModel>
  </diagram>
</mxfile>
